# xmcd
#
# Track frame offsets: 
#        225
#        26357
#        46182
#        63282
#        84366
#        116129
#        141717
#        169262
#        192504
#        206158
#        230227
#        251556
#        276574
#
# Disc length: 3937 seconds
#
# Revision: 1
# Processed by: cddbd v1.5.2PL0 Copyright (c) Steve Scherf et al.
# Submitted via: ExactAudioCopy v0.99pb5
#
DISCID=cb0f5e0d
DTITLE=The Palladium Orchestra - The Big 3: Live at the Blue Note
DYEAR=2004
DGENRE=Salsa
TTITLE0=Cuban Fantasy
TTITLE1=Piniero Tenia Razon
TTITLE2=Que Bonito es Puerto Rico
TTITLE3=Mambo Inn
TTITLE4=Barbarabatiri
TTITLE5=Palladium Days
TTITLE6=El Cayuco
TTITLE7=Complicacion
TTITLE8=Mama Guela
TTITLE9=Chevere
TTITLE10=Avisale a Mi Contrario
TTITLE11=El Moldo de las Locas
TTITLE12=Oye Como Va
EXTD=YEAR: 2004
EXTT0=
EXTT1=
EXTT2=
EXTT3=
EXTT4=
EXTT5=
EXTT6=
EXTT7=
EXTT8=
EXTT9=
EXTT10=
EXTT11=
EXTT12=
PLAYORDER=
